<svg width="16" height="16" viewBox="0 0 16 16" fill="none" xmlns="http://www.w3.org/2000/svg">
<path fill-rule="evenodd" clip-rule="evenodd" d="M8.00325 0C12.4201 0 15.9997 3.57967 15.9997 8.00334C15.9997 11.0202 14.3254 13.6541 11.8572 15.0181L11.8428 14.715V14.6934C11.8284 14.3253 11.8212 13.9717 11.8139 13.6469C11.785 12.6149 11.749 11.4819 11.7923 10.4498C11.8139 9.96635 12.0593 9.82918 12.4418 9.49716C12.8171 9.17239 12.9469 8.99202 13.0119 8.47954C13.0841 7.95275 13.0191 7.51972 12.9686 7.00736C12.9253 6.51662 12.8892 6.01865 12.8459 5.53517C12.7666 4.57535 12.6438 3.53608 12.6077 2.57635H12.3768C12.3912 4.15679 12.3624 5.7446 12.3768 7.32515C12.3768 7.56332 12.3985 7.80149 12.1459 7.80149C11.8934 7.80874 11.915 7.58498 11.915 7.35407C11.9223 5.78077 11.8861 4.14267 11.915 2.58383L11.6624 2.56944V7.4191C11.6697 7.72221 11.648 7.82323 11.316 7.79444C11.1572 7.57067 11.2005 7.59232 11.2005 7.26041V2.57675L10.9551 2.5695V6.76259C10.9551 7.0801 11.0923 8.01112 10.6087 7.77295C10.4498 7.6936 10.5004 7.46258 10.5004 7.23167V2.56944L10.2478 2.57669C10.1973 3.5798 9.74271 7.66464 9.83648 8.4512C9.85813 8.66771 9.90868 8.88422 10.0024 9.05745C10.089 9.21626 10.6591 9.72864 10.8107 9.84404C11.2004 10.1399 11.0705 11.4101 11.0705 11.9874C11.0632 12.7813 11.0489 13.77 11.0128 14.8309L10.9912 15.4227C10.0674 15.798 9.05703 16 8.00347 16C7.31062 16 6.63229 15.9134 5.99712 15.7474L5.96822 15.2494V15.2278C5.91052 13.9215 5.89601 12.7307 5.88887 11.9224C5.88887 11.3378 5.87447 10.7244 5.89612 10.1398C5.92503 9.33871 7.01474 9.54083 7.68596 8.3645C7.93138 7.93147 8.04678 7.48405 8.02513 6.92108C7.98908 5.88181 7.49833 4.36631 6.92091 3.57969C6.71165 3.29822 6.32192 2.82913 6.01155 2.67759C5.78064 2.56933 5.51355 2.54042 5.25376 2.59824C4.72696 2.71375 4.48156 3.03126 4.229 3.37769C3.99083 3.71685 3.76717 4.07054 3.57232 4.50356C3.01664 5.75209 2.54756 7.47696 3.51462 8.67494C3.83213 9.06468 4.04864 9.17294 4.53938 9.43273C4.72699 9.53374 4.94352 9.6853 5.03012 9.81522C5.18168 10.039 5.12398 10.3492 5.13112 10.6451C5.16003 11.7781 5.13112 13.3731 5.06617 14.9536L5.05891 15.0113V15.0907L5.04451 15.4155V15.4371C2.08569 14.2608 0 11.374 0 8.00377C0 3.57982 3.57967 0.000427995 8.00334 0.000427995L8.00325 0Z" fill="#F15700"/>
</svg>
