<svg width="18" height="16" viewBox="0 0 18 16" fill="none" xmlns="http://www.w3.org/2000/svg">
<path d="M16.5035 5.67798C16.4846 5.60547 16.371 5.58725 16.3521 5.67798L14.1013 15.4375C14.0634 15.5646 14.1959 15.6734 14.3282 15.6371L17.7706 14.603C17.922 14.5667 18.0166 14.4216 17.9976 14.2583L16.5035 5.67798Z" fill="#74B055"/>
<path d="M15.2741 2.70299H12.3423V1.74155C12.3423 0.780104 11.529 0 10.5265 0H8.50269C7.50023 0 6.68685 0.779975 6.68685 1.74155V2.70299H3.33898C3.16878 2.70299 3.01745 2.81181 2.96073 2.99327L0.0101275 15.5646C-0.0466054 15.7822 0.142592 16 0.38838 16H12.3611C12.5313 16 12.6827 15.8912 12.7394 15.7097L15.6521 3.12025C15.69 2.90261 15.5198 2.70306 15.274 2.70306L15.2741 2.70299ZM7.95421 1.72334C7.95421 1.43307 8.20014 1.19733 8.50266 1.19733H10.5266C10.8292 1.19733 11.075 1.4332 11.075 1.72334V2.68479L7.95421 2.68491V1.72334ZM6.87616 8.2539H6.72483L5.81698 13.3876C5.72238 13.8593 5.23067 14.2766 4.73879 14.2766H4.71993C4.22819 14.2766 3.92552 13.8775 4.07687 13.3876L5.62791 8.2539H5.47658C5.07931 8.2539 4.83353 7.94553 4.92813 7.56453L5.55231 4.97051C5.59017 4.80728 5.76037 4.68024 5.93056 4.68024C6.10076 4.68024 6.19535 4.80728 6.15749 4.97051L5.62789 7.20176C5.60902 7.29249 5.66576 7.3469 5.74136 7.3469H5.93055C6.02515 7.3469 6.10075 7.27439 6.11975 7.20176L6.64935 4.97051C6.68722 4.80728 6.85742 4.68024 7.0276 4.68024C7.19779 4.68024 7.2924 4.80728 7.25454 4.97051L6.72493 7.20176C6.70607 7.29249 6.7628 7.3469 6.8384 7.3469H7.0276C7.1222 7.3469 7.1978 7.27439 7.21679 7.20176L7.7464 4.97051C7.78426 4.80728 7.95446 4.68024 8.12465 4.68024C8.29485 4.68024 8.38944 4.80728 8.37057 4.97051L7.7464 7.56453C7.67054 7.94555 7.27327 8.2539 6.87614 8.2539H6.87616ZM9.65657 13.4421C9.5431 13.8956 9.07026 14.2584 8.5974 14.2584C8.0678 14.2584 7.78415 13.8048 7.97323 13.315L9.29719 10.0497H9.01353C8.59742 10.0497 8.35146 9.72328 8.46509 9.32419L9.08926 7.09295C9.39192 6.0408 10.2619 5.11567 11.3589 4.68027C11.567 4.60776 11.7562 4.73468 11.7183 4.93423L9.65657 13.4421Z" fill="#74B055"/>
</svg>
